<svg width="569" height="1029" viewBox="0 0 569 1029" fill="none" xmlns="http://www.w3.org/2000/svg">
<g filter="url(#filter0_ddddd_2_1630)">
<path d="M442.837 232.308H444.418C445.292 232.308 446 233.017 446 233.892V337.374C446 338.249 445.292 338.958 444.418 338.958H442.837V232.308Z" fill="#1C3343"/>
<path d="M3.16309 361.133L1.58152 361.133C0.708048 361.133 -4.00392e-05 360.424 -3.99628e-05 359.549L-3.45244e-05 297.248C-3.44481e-05 296.374 0.708054 295.664 1.58153 295.664L3.16309 295.664L3.16309 361.133Z" fill="#1C3343"/>
<path d="M3.16309 274.545L1.58152 274.545C0.708048 274.545 -4.00392e-05 273.836 -3.99628e-05 272.961L-3.45244e-05 210.661C-3.44481e-05 209.786 0.708054 209.077 1.58153 209.077L3.16309 209.077L3.16309 274.545Z" fill="#213744"/>
<path d="M3.16309 177.399L1.58152 177.399C0.708052 177.399 -3.70226e-05 176.689 -3.69463e-05 175.815L-3.42731e-05 145.192C-3.41968e-05 144.318 0.708054 143.608 1.58153 143.608L3.16309 143.608L3.16309 177.399Z" fill="#213744"/>
<path d="M3.16309 96.0909C3.16309 70.5406 3.16309 57.7654 6.51739 47.4266C13.2967 26.531 29.6547 10.1487 50.5191 3.3593C60.8426 0 73.5988 0 99.1111 0H346.889C372.401 0 385.157 0 395.481 3.3593C416.345 10.1487 432.703 26.531 439.483 47.4266C442.837 57.7654 442.837 70.5406 442.837 96.0909V809.909C442.837 835.459 442.837 848.235 439.483 858.573C432.703 879.469 416.345 895.851 395.481 902.641C385.157 906 372.401 906 346.889 906H99.1111C73.5988 906 60.8426 906 50.5191 902.641C29.6547 895.851 13.2967 879.469 6.51739 858.573C3.16309 848.235 3.16309 835.459 3.16309 809.909V96.0909Z" fill="#213744"/>
<path fill-rule="evenodd" clip-rule="evenodd" d="M347.31 2.11191H98.6892C73.4873 2.11191 61.1364 2.12494 51.1706 5.36785C30.9481 11.9483 15.0934 27.8266 8.52276 48.0792C5.28467 58.0598 5.27166 70.4291 5.27166 95.6685V810.331C5.27166 835.571 5.28467 847.94 8.52276 857.921C15.0934 878.173 30.9481 894.052 51.1706 900.632C61.1364 903.875 73.4873 903.888 98.6892 903.888H347.31C372.512 903.888 384.863 903.875 394.829 900.632C415.052 894.052 430.906 878.173 437.477 857.921C440.715 847.94 440.728 835.571 440.728 810.331V95.6685C440.728 70.4291 440.715 58.0598 437.477 48.0792C430.906 27.8266 415.052 11.9483 394.829 5.36785C384.863 2.12494 372.512 2.11191 347.31 2.11191ZM7.51999 47.7529C4.21729 57.9327 4.21729 70.5113 4.21729 95.6685V810.331C4.21729 835.489 4.21729 848.067 7.51999 858.247C14.195 878.821 30.3013 894.951 50.8448 901.636C61.0094 904.944 73.5693 904.944 98.6892 904.944H347.31C372.43 904.944 384.99 904.944 395.155 901.636C415.698 894.951 431.805 878.821 438.48 858.247C441.782 848.067 441.782 835.489 441.782 810.331V95.6685C441.782 70.5113 441.782 57.9327 438.48 47.7529C431.805 27.1788 415.698 11.0485 395.155 4.36359C384.99 1.05597 372.43 1.05597 347.31 1.05597H98.6892C73.5693 1.05597 61.0094 1.05597 50.8448 4.36359C30.3013 11.0485 14.195 27.1788 7.51999 47.7529Z" fill="#8EADC1"/>
<path d="M8.43506 93.979C8.43506 70.3941 8.43506 58.6017 11.5313 49.0581C17.7891 29.7699 32.8888 14.6477 52.1483 8.38062C61.6777 5.27972 73.4526 5.27972 97.0024 5.27972H348.998C372.548 5.27972 384.322 5.27972 393.852 8.38062C413.111 14.6477 428.211 29.7699 434.469 49.0581C437.565 58.6017 437.565 70.3941 437.565 93.979V812.021C437.565 835.606 437.565 847.398 434.469 856.942C428.211 876.23 413.111 891.352 393.852 897.619C384.322 900.72 372.548 900.72 348.998 900.72H97.0024C73.4526 900.72 61.6777 900.72 52.1483 897.619C32.8888 891.352 17.7891 876.23 11.5313 856.942C8.43506 847.398 8.43506 835.606 8.43506 812.021V93.979Z" fill="#121515"/>
<rect x="348.998" width="6.32625" height="5.27972" fill="#36454C"/>
<rect x="437.565" y="90.8112" width="5.27187" height="6.33567" fill="#36454C"/>
<rect x="3.16309" y="90.8112" width="5.27187" height="6.33567" fill="#36454C"/>
<rect x="3.16309" y="808.853" width="5.27187" height="6.33569" fill="#36454C"/>
<rect x="437.565" y="808.853" width="5.27187" height="6.33569" fill="#36454C"/>
<rect x="90.676" y="900.72" width="6.32624" height="5.27973" fill="#36454C"/>
<path fill-rule="evenodd" clip-rule="evenodd" d="M267.811 42.2378C272.469 42.2378 276.246 38.4557 276.246 33.7902C276.246 29.1247 272.469 25.3427 267.811 25.3427C263.152 25.3427 259.376 29.1247 259.376 33.7902C259.376 38.4557 263.152 42.2378 267.811 42.2378Z" fill="#262C2D"/>
<path fill-rule="evenodd" clip-rule="evenodd" d="M267.811 39.0699C270.723 39.0699 273.083 36.7061 273.083 33.7902C273.083 30.8742 270.723 28.5104 267.811 28.5104C264.899 28.5104 262.539 30.8742 262.539 33.7902C262.539 36.7061 264.899 39.0699 267.811 39.0699Z" fill="#121515"/>
<path opacity="0.4" fill-rule="evenodd" clip-rule="evenodd" d="M267.811 32.7343C268.393 32.7343 268.865 32.2615 268.865 31.6783C268.865 31.0951 268.393 30.6224 267.811 30.6224C267.229 30.6224 266.757 31.0951 266.757 31.6783C266.757 32.2615 267.229 32.7343 267.811 32.7343Z" fill="#636F73"/>
<path fill-rule="evenodd" clip-rule="evenodd" d="M197.168 33.7902C197.168 32.0407 198.586 30.6224 200.336 30.6224H245.664C247.414 30.6224 248.832 32.0407 248.832 33.7902V33.7902C248.832 35.5398 247.414 36.958 245.664 36.958H200.336C198.586 36.958 197.168 35.5398 197.168 33.7902V33.7902Z" fill="#262C2D"/>
</g>
<defs>
<filter id="filter0_ddddd_2_1630" x="0" y="0" width="568.478" height="1028.48" filterUnits="userSpaceOnUse" color-interpolation-filters="sRGB">
<feFlood flood-opacity="0" result="BackgroundImageFix"/>
<feColorMatrix in="SourceAlpha" type="matrix" values="0 0 0 0 0 0 0 0 0 0 0 0 0 0 0 0 0 0 127 0" result="hardAlpha"/>
<feOffset dx="5.10325" dy="5.10325"/>
<feGaussianBlur stdDeviation="2.55163"/>
<feColorMatrix type="matrix" values="0 0 0 0 0 0 0 0 0 0 0 0 0 0 0 0 0 0 0.24 0"/>
<feBlend mode="normal" in2="BackgroundImageFix" result="effect1_dropShadow_2_1630"/>
<feColorMatrix in="SourceAlpha" type="matrix" values="0 0 0 0 0 0 0 0 0 0 0 0 0 0 0 0 0 0 127 0" result="hardAlpha"/>
<feOffset dx="10.2065" dy="10.2065"/>
<feGaussianBlur stdDeviation="5.10325"/>
<feColorMatrix type="matrix" values="0 0 0 0 0 0 0 0 0 0 0 0 0 0 0 0 0 0 0.24 0"/>
<feBlend mode="normal" in2="effect1_dropShadow_2_1630" result="effect2_dropShadow_2_1630"/>
<feColorMatrix in="SourceAlpha" type="matrix" values="0 0 0 0 0 0 0 0 0 0 0 0 0 0 0 0 0 0 127 0" result="hardAlpha"/>
<feOffset dx="20.413" dy="20.413"/>
<feGaussianBlur stdDeviation="10.2065"/>
<feColorMatrix type="matrix" values="0 0 0 0 0 0 0 0 0 0 0 0 0 0 0 0 0 0 0.24 0"/>
<feBlend mode="normal" in2="effect2_dropShadow_2_1630" result="effect3_dropShadow_2_1630"/>
<feColorMatrix in="SourceAlpha" type="matrix" values="0 0 0 0 0 0 0 0 0 0 0 0 0 0 0 0 0 0 127 0" result="hardAlpha"/>
<feOffset dx="40.826" dy="40.826"/>
<feGaussianBlur stdDeviation="20.413"/>
<feColorMatrix type="matrix" values="0 0 0 0 0 0 0 0 0 0 0 0 0 0 0 0 0 0 0.16 0"/>
<feBlend mode="normal" in2="effect3_dropShadow_2_1630" result="effect4_dropShadow_2_1630"/>
<feColorMatrix in="SourceAlpha" type="matrix" values="0 0 0 0 0 0 0 0 0 0 0 0 0 0 0 0 0 0 127 0" result="hardAlpha"/>
<feOffset dx="61.239" dy="61.239"/>
<feGaussianBlur stdDeviation="30.6195"/>
<feColorMatrix type="matrix" values="0 0 0 0 0 0 0 0 0 0 0 0 0 0 0 0 0 0 0.16 0"/>
<feBlend mode="normal" in2="effect4_dropShadow_2_1630" result="effect5_dropShadow_2_1630"/>
<feBlend mode="normal" in="SourceGraphic" in2="effect5_dropShadow_2_1630" result="shape"/>
</filter>
</defs>
</svg>
