<svg width="29" height="15" viewBox="0 0 29 15" fill="none" xmlns="http://www.w3.org/2000/svg">
<path d="M28.9061 7.03854C29.2406 8.10818 28.4397 9.19469 27.319 9.19168L2.48386 9.12496C1.76031 9.12302 1.12155 8.65217 0.905618 7.96159C0.571157 6.89195 1.37206 5.80544 2.49276 5.80845L27.3279 5.87517C28.0515 5.87711 28.6902 6.34796 28.9061 7.03854Z" fill="#D4D4D2" style="mix-blend-mode:overlay"/>
<path d="M17 2C17 3.10457 16.1046 4 15 4C13.8954 4 13 3.10457 13 2C13 0.89543 13.8954 0 15 0C16.1046 0 17 0.89543 17 2Z" fill="#D4D4D2"/>
<path d="M17 13C17 14.1046 16.1046 15 15 15C13.8954 15 13 14.1046 13 13C13 11.8954 13.8954 11 15 11C16.1046 11 17 11.8954 17 13Z" fill="#D4D4D2"/>
</svg>
