<svg width="197" height="106" viewBox="0 0 197 106" fill="none" xmlns="http://www.w3.org/2000/svg">
<path fill-rule="evenodd" clip-rule="evenodd" d="M41.8396 9.95518C47.3813 7.34827 54.0732 7.34827 59.6149 9.95518L91.7422 25.0683C97.7283 27.8842 101.455 33.3056 101.455 39.1987V67.8013C101.455 73.6944 97.7283 79.1158 91.7422 81.9317L59.6149 97.0448C54.0732 99.6517 47.3813 99.6517 41.8396 97.0448L9.71233 81.9317C3.72629 79.1158 0 73.6944 0 67.8013V39.1987C0 33.3056 3.72629 27.8842 9.71232 25.0683L41.8396 9.95518Z" fill="white"/>
<path d="M23.48 68V39.64H17.08V68H23.48ZM36.5391 53.8C36.5391 47.88 40.7791 45.2 44.7391 45.2C48.6591 45.2 52.8991 47.88 52.8991 53.8C52.8991 59.72 48.6591 62.36 44.7391 62.36C40.7791 62.36 36.5391 59.72 36.5391 53.8ZM29.9791 53.84C29.9791 62.8 36.7391 68.6 44.7391 68.6C52.6991 68.6 59.4591 62.8 59.4591 53.84C59.4591 44.84 52.6991 39.04 44.7391 39.04C36.7391 39.04 29.9791 44.84 29.9791 53.84ZM85.4437 46.6C84.8438 43.28 82.1638 39.04 75.0838 39.04C69.6438 39.04 64.9238 42.8 64.9238 48.16C64.9238 52.36 67.8438 55.56 72.6438 56.48L76.5238 57.2C78.4038 57.56 79.5638 58.6 79.5638 60.04C79.5638 61.8 78.0438 63 75.5638 63C71.6838 63 69.9238 60.72 69.6838 58.12L63.8838 59.52C64.2838 63.52 67.6438 68.6 75.4838 68.6C82.2438 68.6 85.9638 64.08 85.9638 59.64C85.9638 55.6 83.1638 52.12 77.7638 51.12L73.9638 50.4C72.0038 50.04 71.1638 49.04 71.1638 47.68C71.1638 46.12 72.6838 44.64 75.0438 44.64C78.4838 44.64 79.5638 46.88 79.7638 48.2L85.4437 46.6Z" fill="#FF9500"/>
<g clip-path="url(#clip0_2_13)">
<rect x="120" y="21" width="77" height="64" rx="32" fill="#FF9500"/>
<path d="M152.121 41.7273V65H147.2V46.3977H147.064L141.734 49.7386V45.375L147.496 41.7273H152.121ZM166.584 65.3182C165.387 65.3106 164.232 65.1098 163.118 64.7159C162.012 64.322 161.019 63.6818 160.141 62.7955C159.262 61.9091 158.565 60.7348 158.05 59.2727C157.542 57.8106 157.288 56.0152 157.288 53.8864C157.296 51.9318 157.519 50.1856 157.959 48.6477C158.406 47.1023 159.042 45.7917 159.868 44.7159C160.701 43.6402 161.697 42.822 162.857 42.2614C164.016 41.6932 165.315 41.4091 166.754 41.4091C168.307 41.4091 169.679 41.7121 170.868 42.3182C172.057 42.9167 173.012 43.7311 173.732 44.7614C174.459 45.7917 174.898 46.947 175.05 48.2273H170.197C170.008 47.4167 169.61 46.7803 169.004 46.3182C168.398 45.8561 167.648 45.625 166.754 45.625C165.239 45.625 164.088 46.2841 163.3 47.6023C162.519 48.9205 162.122 50.7121 162.107 52.9773H162.266C162.614 52.2879 163.084 51.7008 163.675 51.2159C164.273 50.7235 164.951 50.3485 165.709 50.0909C166.474 49.8258 167.281 49.6932 168.129 49.6932C169.508 49.6932 170.735 50.0189 171.811 50.6705C172.887 51.3144 173.735 52.2008 174.357 53.3295C174.978 54.4583 175.288 55.75 175.288 57.2045C175.288 58.7803 174.921 60.1818 174.186 61.4091C173.459 62.6364 172.44 63.5985 171.129 64.2955C169.826 64.9848 168.311 65.3258 166.584 65.3182ZM166.561 61.4545C167.319 61.4545 167.997 61.2727 168.595 60.9091C169.194 60.5455 169.663 60.053 170.004 59.4318C170.345 58.8106 170.516 58.1136 170.516 57.3409C170.516 56.5682 170.345 55.875 170.004 55.2614C169.671 54.6477 169.209 54.1591 168.618 53.7955C168.027 53.4318 167.353 53.25 166.595 53.25C166.027 53.25 165.5 53.3561 165.016 53.5682C164.538 53.7803 164.118 54.0758 163.754 54.4545C163.398 54.8333 163.118 55.2727 162.913 55.7727C162.709 56.2652 162.607 56.7917 162.607 57.3523C162.607 58.1023 162.777 58.7879 163.118 59.4091C163.466 60.0303 163.936 60.5265 164.527 60.8977C165.125 61.2689 165.804 61.4545 166.561 61.4545Z" fill="white"/>
</g>
<defs>
<clipPath id="clip0_2_13">
<rect width="77" height="64" fill="white" transform="translate(120 21)"/>
</clipPath>
</defs>
</svg>
