<svg width="20" height="27" viewBox="0 0 20 27" fill="none" xmlns="http://www.w3.org/2000/svg">
<path d="M13.7377 0C14.8584 0 15.6564 1.08866 15.319 2.1574L7.84367 25.8409C7.62588 26.5309 6.98586 27 6.26231 27C5.1416 27 4.34362 25.9113 4.68095 24.8426L12.1563 1.15912C12.3741 0.469129 13.0141 0 13.7377 0Z" fill="#1C1C1C" style="mix-blend-mode:overlay"/>
<path d="M0.468 7.488C0.468 10.116 1.428 11.952 3.948 11.952C6.468 11.952 7.44 10.116 7.44 7.488C7.44 4.896 6.468 3.048 3.948 3.048C1.428 3.048 0.468 4.896 0.468 7.488ZM5.112 7.488C5.112 8.736 4.992 9.732 3.948 9.732C2.904 9.732 2.784 8.736 2.784 7.488C2.784 6.276 2.904 5.268 3.948 5.268C4.992 5.268 5.112 6.276 5.112 7.488Z" fill="#1C1C1C" style="mix-blend-mode:overlay"/>
<path d="M12.468 18.488C12.468 21.116 13.428 22.952 15.948 22.952C18.468 22.952 19.44 21.116 19.44 18.488C19.44 15.896 18.468 14.048 15.948 14.048C13.428 14.048 12.468 15.896 12.468 18.488ZM17.112 18.488C17.112 19.736 16.992 20.732 15.948 20.732C14.904 20.732 14.784 19.736 14.784 18.488C14.784 17.276 14.904 16.268 15.948 16.268C16.992 16.268 17.112 17.276 17.112 18.488Z" fill="#1C1C1C" style="mix-blend-mode:overlay"/>
</svg>
